<svg xmlns="http://www.w3.org/2000/svg" viewBox="0 0 32 32" width="32" height="32">
	<rect x="2" y="2" width="10" height="10" rx="1" fill="#222"/>
	<rect x="4" y="4" width="6" height="6" fill="#fff"/>
	<rect x="5.5" y="5.5" width="3" height="3" fill="#222"/>
	<rect x="20" y="2" width="10" height="10" rx="1" fill="#222"/>
	<rect x="22" y="4" width="6" height="6" fill="#fff"/>
	<rect x="23.5" y="5.5" width="3" height="3" fill="#222"/>
	<rect x="2" y="20" width="10" height="10" rx="1" fill="#222"/>
	<rect x="4" y="22" width="6" height="6" fill="#fff"/>
	<rect x="5.5" y="23.5" width="3" height="3" fill="#222"/>
	<rect x="14" y="2" width="3" height="3" fill="#222"/>
	<rect x="14" y="8" width="3" height="3" fill="#222"/>
	<rect x="14" y="14" width="3" height="3" fill="#222"/>
	<rect x="20" y="14" width="3" height="3" fill="#222"/>
	<rect x="26" y="14" width="3" height="3" fill="#222"/>
	<rect x="14" y="20" width="3" height="3" fill="#222"/>
	<rect x="20" y="20" width="3" height="3" fill="#222"/>
	<rect x="26" y="20" width="3" height="3" fill="#222"/>
	<rect x="14" y="26" width="3" height="3" fill="#222"/>
	<rect x="20" y="26" width="3" height="3" fill="#222"/>
	<rect x="26" y="26" width="3" height="3" fill="#222"/>
</svg>
